<svg version="1.0" xmlns="http://www.w3.org/2000/svg"
 width="1195.000000pt" height="303.000000pt" viewBox="0 0 1195.000000 303.000000"
 preserveAspectRatio="xMidYMid meet">
    <g transform="translate(0.000000,303.000000) scale(0.100000,-0.100000)"
    fill="#000000" stroke="none">
        <path d="M1420 2979 c-517 -60 -958 -369 -1187 -834 -141 -284 -185 -628 -123
        -948 98 -504 459 -933 938 -1113 81 -31 116 -31 147 1 24 23 25 28 25 177 l0
        153 -152 0 c-139 0 -158 2 -203 23 -73 34 -110 75 -168 187 -49 95 -89 145
        -178 218 -33 26 -33 28 -15 42 24 18 55 19 110 3 46 -14 137 -99 196 -183 45
        -64 110 -103 191 -117 54 -9 76 -8 138 8 78 20 82 24 100 91 6 23 27 64 45 92
        40 58 49 50 -79 72 -287 49 -475 212 -539 469 -9 36 -19 117 -23 181 -9 174
        24 299 111 412 l36 47 -17 86 c-17 90 -11 177 19 269 l13 40 60 -1 c70 -1 150
        -31 269 -100 l79 -46 76 16 c200 42 362 44 566 5 l110 -21 75 44 c103 61 204
        101 272 106 l57 4 16 -53 c24 -77 30 -221 12 -288 l-15 -55 39 -51 c80 -106
        110 -209 110 -371 -2 -395 -193 -630 -564 -694 -34 -6 -74 -13 -89 -16 l-27
        -5 34 -45 c59 -76 65 -116 65 -403 0 -278 4 -298 53 -315 53 -19 255 67 426
        181 114 76 309 271 388 388 111 165 184 330 230 525 37 156 43 409 15 576 -82
        480 -377 877 -811 1094 -254 128 -552 181 -831 149z"/>
        <path d="M4778 2480 c-104 -17 -182 -41 -268 -83 -120 -58 -237 -175 -302
        -303 -52 -101 -91 -222 -115 -364 -24 -136 -24 -499 0 -629 82 -445 317 -671
        748 -722 266 -31 551 18 735 126 l44 26 -2 522 -3 522 -360 0 -360 0 -3 -184
        c-2 -141 1 -186 10 -193 7 -4 73 -8 146 -8 l132 0 0 -194 0 -195 -47 -8 c-90
        -15 -253 -9 -317 12 -143 46 -233 169 -278 380 -19 91 -16 401 5 495 21 91 72
        201 121 257 48 55 153 107 248 123 111 19 310 8 433 -24 61 -16 103 -22 108
        -17 18 18 87 343 77 361 -12 23 -102 56 -220 81 -108 23 -434 35 -532 19z"/>
        <path d="M10578 2409 c-17 -9 -18 -68 -18 -999 l0 -990 23 -5 c12 -3 85 -4
        162 -3 l139 3 8 41 9 41 97 -48 c113 -56 212 -79 339 -79 230 1 365 77 449
        254 52 108 74 230 81 436 9 273 -23 442 -108 570 -138 206 -423 250 -741 115
        -17 -7 -18 13 -18 328 0 296 -2 336 -16 341 -27 10 -388 6 -406 -5z m747 -978
        c79 -46 110 -143 109 -346 0 -222 -30 -307 -119 -341 -64 -24 -184 -15 -259
        19 l-56 26 0 304 0 305 52 22 c99 42 211 47 273 11z"/>
        <path d="M7496 2394 c-3 -9 -6 -451 -6 -983 0 -759 3 -971 13 -984 11 -16 33
        -17 217 -15 l205 3 3 428 2 427 285 0 285 0 2 -427 3 -428 212 -3 213 -2 5 22
        c3 13 4 462 3 998 l-3 975 -215 0 -215 0 -3 -367 -2 -368 -285 0 -285 0 0 370
        0 370 -214 0 c-186 0 -215 -2 -220 -16z"/>
        <path d="M5933 2353 c-52 -18 -125 -95 -141 -151 -29 -95 -8 -176 63 -249 55
        -56 97 -73 180 -73 155 1 263 151 225 311 -16 67 -94 151 -155 168 -54 15
        -121 13 -172 -6z"/>
        <path d="M6600 1972 l0 -199 -112 -29 -113 -29 -3 -139 c-2 -93 1 -143 9 -152
        8 -10 38 -14 109 -14 l98 0 4 -347 c4 -324 6 -353 26 -414 41 -125 126 -209
        253 -252 90 -30 327 -31 409 -2 l55 20 3 149 c2 95 -1 153 -8 160 -6 6 -52 11
        -103 11 -102 0 -137 12 -171 58 -20 27 -21 42 -24 323 l-3 294 145 0 c133 0
        146 2 156 19 5 11 10 84 10 166 0 82 -5 155 -10 166 -10 17 -23 19 -155 19
        l-145 0 -2 193 -3 192 -212 3 -213 2 0 -198z"/>
        <path d="M5817 1773 c-4 -3 -7 -306 -7 -673 0 -505 3 -669 12 -678 17 -17 399
        -17 416 0 17 17 17 1329 0 1346 -13 13 -409 18 -421 5z"/>
        <path d="M9127 1773 c-12 -12 -8 -1027 4 -1085 17 -79 43 -132 90 -183 87 -94
        206 -135 392 -135 138 0 253 26 370 83 l87 43 0 -31 c0 -55 4 -56 161 -53
        l144 3 3 674 c2 533 0 676 -10 683 -22 14 -406 10 -415 -4 -4 -7 -10 -231 -13
        -497 l-5 -485 -59 -23 c-83 -34 -173 -41 -232 -18 -37 14 -50 25 -65 59 -17
        38 -19 73 -19 496 0 341 -3 459 -12 468 -13 13 -409 18 -421 5z"/>
    </g>
</svg>
